<?xml version="1.0" encoding="UTF-8" standalone="no"?>
<svg
   xmlns:dc="http://purl.org/dc/elements/1.1/"
   xmlns:cc="http://creativecommons.org/ns#"
   xmlns:rdf="http://www.w3.org/1999/02/22-rdf-syntax-ns#"
   xmlns:svg="http://www.w3.org/2000/svg"
   xmlns="http://www.w3.org/2000/svg"
   xmlns:sodipodi="http://sodipodi.sourceforge.net/DTD/sodipodi-0.dtd"
   xmlns:inkscape="http://www.inkscape.org/namespaces/inkscape"
   width="165px"
   height="165px"
   viewBox="0 0 165 165"
   version="1.1"
   id="svg437"
   sodipodi:docname="logo-light-picto.svg"
   inkscape:version="0.92.5 (2060ec1f9f, 2020-04-08)"
   inkscape:export-filename="/home/klefevre/Downloads/logo-negativ.png"
   inkscape:export-xdpi="96"
   inkscape:export-ydpi="96">
  <metadata
     id="metadata443">
    <rdf:RDF>
      <cc:Work
         rdf:about="">
        <dc:format>image/svg+xml</dc:format>
        <dc:type
           rdf:resource="http://purl.org/dc/dcmitype/StillImage" />
        <dc:title>Artboard@2x</dc:title>
      </cc:Work>
    </rdf:RDF>
  </metadata>
  <defs
     id="defs441" />
  <sodipodi:namedview
     pagecolor="#ffffff"
     bordercolor="#666666"
     borderopacity="1"
     objecttolerance="10"
     gridtolerance="10"
     guidetolerance="10"
     inkscape:pageopacity="0"
     inkscape:pageshadow="2"
     inkscape:window-width="1920"
     inkscape:window-height="1056"
     id="namedview439"
     showgrid="false"
     inkscape:zoom="3.2385491"
     inkscape:cx="79.610538"
     inkscape:cy="69.394195"
     inkscape:window-x="0"
     inkscape:window-y="24"
     inkscape:window-maximized="0"
     inkscape:current-layer="svg437"
     inkscape:pagecheckerboard="true" />
  <!-- Generator: Sketch 61.2 (89653) - https://sketch.com -->
  <title
     id="title430">Artboard@2x</title>
  <desc
     id="desc432">Created with Sketch.</desc>
  <path
     style="fill:#ffffff;fill-opacity:1"
     d="M 82.5 0 L 81.134766 0.01171875 C 56.840476 0.40561365 35.099488 11.300487 20.251953 28.355469 L 73.529297 28.355469 L 86.121094 0.078125 C 84.920844 0.026302 83.713 0 82.5 0 z M 98.591797 1.5683594 L 86.664062 28.355469 L 144.74805 28.355469 C 132.97549 14.83263 116.86864 5.181867 98.591797 1.5683594 z M 11.5625 40.355469 C 4.218819 52.689979 0 67.10261 0 82.5 L 0.01171875 83.865234 C 0.08285375 88.252637 0.4960225 92.556631 1.2265625 96.751953 L 52.830078 74.845703 L 68.185547 40.355469 L 11.5625 40.355469 z M 81.322266 40.355469 L 69.027344 67.970703 L 134.08398 40.355469 L 81.322266 40.355469 z M 155.61719 44.251953 L 61.869141 84.044922 L 33.126953 148.60156 C 46.893493 158.90073 63.984569 165 82.5 165 C 128.06349 165 165 128.06349 165 82.5 C 165 68.696681 161.60991 55.684654 155.61719 44.251953 z M 45.673828 90.919922 L 4.1894531 108.5293 C 8.2049031 120.61575 14.940309 131.46175 23.669922 140.33984 L 45.673828 90.919922 z M 93 121 C 97.97056 121 102 125.02944 102 130 C 102 134.97056 97.97056 139 93 139 C 88.02943 139 84 134.97056 84 130 C 84 125.02944 88.02943 121 93 121 z "
     id="rect33" />
</svg>
